<svg width="13" height="18" viewBox="0 0 13 18" fill="none" xmlns="http://www.w3.org/2000/svg">
<path d="M1.625 17.125C1.17812 17.125 0.795573 16.9659 0.477344 16.6477C0.159115 16.3294 0 15.9469 0 15.5V5.75C0 5.30312 0.159115 4.92057 0.477344 4.60234C0.795573 4.28411 1.17812 4.125 1.625 4.125H3.25C3.25 3.23125 3.56823 2.46615 4.20469 1.82969C4.84115 1.19323 5.60625 0.875 6.5 0.875C7.39375 0.875 8.15885 1.19323 8.79531 1.82969C9.43177 2.46615 9.75 3.23125 9.75 4.125H11.375C11.8219 4.125 12.2044 4.28411 12.5227 4.60234C12.8409 4.92057 13 5.30312 13 5.75V15.5C13 15.9469 12.8409 16.3294 12.5227 16.6477C12.2044 16.9659 11.8219 17.125 11.375 17.125H1.625ZM1.625 15.5H11.375V5.75H9.75V7.375C9.75 7.60521 9.67214 7.79818 9.51641 7.95391C9.36068 8.10964 9.16771 8.1875 8.9375 8.1875C8.70729 8.1875 8.51432 8.10964 8.35859 7.95391C8.20286 7.79818 8.125 7.60521 8.125 7.375V5.75H4.875V7.375C4.875 7.60521 4.79714 7.79818 4.64141 7.95391C4.48568 8.10964 4.29271 8.1875 4.0625 8.1875C3.83229 8.1875 3.63932 8.10964 3.48359 7.95391C3.32786 7.79818 3.25 7.60521 3.25 7.375V5.75H1.625V15.5ZM4.875 4.125H8.125C8.125 3.67812 7.96589 3.29557 7.64766 2.97734C7.32943 2.65911 6.94687 2.5 6.5 2.5C6.05312 2.5 5.67057 2.65911 5.35234 2.97734C5.03411 3.29557 4.875 3.67812 4.875 4.125Z" fill="#434343"/>
</svg>
