<svg width="18" height="18" viewBox="0 0 18 18" fill="none" xmlns="http://www.w3.org/2000/svg">
<path d="M5.40499 18.0083C4.90954 18.0083 4.48539 17.8319 4.13257 17.4791C3.77974 17.1263 3.60333 16.7021 3.60333 16.2067C3.60333 15.7112 3.77974 15.2871 4.13257 14.9343C4.48539 14.5814 4.90954 14.405 5.40499 14.405C5.90045 14.405 6.32459 14.5814 6.67742 14.9343C7.03025 15.2871 7.20666 15.7112 7.20666 16.2067C7.20666 16.7021 7.03025 17.1263 6.67742 17.4791C6.32459 17.8319 5.90045 18.0083 5.40499 18.0083ZM14.4133 18.0083C13.9179 18.0083 13.4937 17.8319 13.1409 17.4791C12.7881 17.1263 12.6117 16.7021 12.6117 16.2067C12.6117 15.7112 12.7881 15.2871 13.1409 14.9343C13.4937 14.5814 13.9179 14.405 14.4133 14.405C14.9088 14.405 15.3329 14.5814 15.6857 14.9343C16.0386 15.2871 16.215 15.7112 16.215 16.2067C16.215 16.7021 16.0386 17.1263 15.6857 17.4791C15.3329 17.8319 14.9088 18.0083 14.4133 18.0083ZM4.63929 3.59503L6.80128 8.09919H13.1071L15.5844 3.59503H4.63929ZM3.7835 1.79336H17.0708C17.4161 1.79336 17.6788 1.94726 17.859 2.25504C18.0392 2.56282 18.0467 2.87436 17.8815 3.18965L14.6836 8.95498C14.5184 9.25526 14.297 9.48797 14.0192 9.65313C13.7414 9.81828 13.4374 9.90085 13.1071 9.90085H6.39591L5.40499 11.7025H16.215V13.5042H5.40499C4.72937 13.5042 4.2189 13.2077 3.87358 12.6146C3.52826 12.0216 3.51325 11.4323 3.82854 10.8467L5.04466 8.63969L1.80166 1.79336H0V-0.00830078H2.9277L3.7835 1.79336Z" fill="#434343"/>
</svg>
