<svg width="22" height="23" viewBox="0 0 22 23" fill="none" xmlns="http://www.w3.org/2000/svg">
<path d="M20.2889 22.5L12.5889 14.8C11.9778 15.2889 11.275 15.6759 10.4806 15.9611C9.68611 16.2463 8.84074 16.3889 7.94444 16.3889C5.72407 16.3889 3.84491 15.6199 2.30694 14.0819C0.768982 12.544 0 10.6648 0 8.44444C0 6.22407 0.768982 4.34491 2.30694 2.80694C3.84491 1.26898 5.72407 0.5 7.94444 0.5C10.1648 0.5 12.044 1.26898 13.5819 2.80694C15.1199 4.34491 15.8889 6.22407 15.8889 8.44444C15.8889 9.34074 15.7463 10.1861 15.4611 10.9806C15.1759 11.775 14.7889 12.4778 14.3 13.0889L22 20.7889L20.2889 22.5ZM7.94444 13.9444C9.47222 13.9444 10.7708 13.4097 11.8403 12.3403C12.9097 11.2708 13.4444 9.97222 13.4444 8.44444C13.4444 6.91667 12.9097 5.61806 11.8403 4.54861C10.7708 3.47917 9.47222 2.94444 7.94444 2.94444C6.41667 2.94444 5.11806 3.47917 4.04861 4.54861C2.97917 5.61806 2.44444 6.91667 2.44444 8.44444C2.44444 9.97222 2.97917 11.2708 4.04861 12.3403C5.11806 13.4097 6.41667 13.9444 7.94444 13.9444Z" fill="#434343"/>
</svg>
